{"title":"Twister-720p MP4 AAC x264 BRRip 1996-CC","uid":8134637,"size":3268229847,"categoryP":"video","categoryS":"hd___movies","magnet":"?xt=urn:btih:92a79df6c994218ce591968894674c36db45f3f9&amp;dn=Twister-720p+MP4+AAC+x264+BRRip+1996-CC&amp;tr=udp%3A%2F%2Ftracker.openbittorrent.com%3A80&amp;tr=udp%3A%2F%2Fopen.demonii.com%3A1337&amp;tr=udp%3A%2F%2Ftracker.coppersurfer.tk%3A6969&amp;tr=udp%3A%2F%2Fexodus.desync.com%3A6969","seeders":1,"leechers":1,"uploader":"Caveman44","files":-1,"time":1360689691,"description":" &lt;a href=&quot;http://www.imdb.com/title/tt0117998/&quot; rel=&quot;nofollow&quot; target=&quot;_NEW&quot;&gt;http://www.imdb.com/title/tt0117998/&lt;/a&gt;\n\nSource: Twister.1996.720p.BluRay.x264-HALCYON Thanks!\n\nSubs: Arabic, Brazilian, Bulgarian, Croatian, Danish, Dutch, English, Finnish, French, Icelandic, Indonesian, Polish, Portuguese, Romanian, Spanish, Swedish and Turkish.\n\nSample and Screens included.\n\nGeneral\nComplete name                            : Twister-720p MP4 AAC x264 BRRip 1996-CC.mp4\nFormat                                   : MPEG-4\nFormat profile                           : Base Media\nCodec ID                                 : isom\nFile size                                : 3.01 GiB\nDuration                                 : 1h 53mn\nOverall bit rate mode                    : Variable\nOverall bit rate                         : 3 812 Kbps\nEncoded date                             : UTC 2013-02-09 07:59:42\n\nVideo\nID                                       : 1\nFormat                                   : AVC\nFormat/Info                              : Advanced Video Codec\nFormat profile                           : &lt;a class=&quot;__cf_email__&quot; href=&quot;/cdn-cgi/l/email-protection&quot; data-cfemail=&quot;6e260709062e225a405f&quot;&gt;[email&amp;#160;protected]&lt;/a&gt;&lt;script cf-hash='f9e31' type=&quot;text/javascript&quot;&gt;\n/* &lt;![CDATA[ */!function(){try{var t=&quot;currentScript&quot;in document?document.currentScript:function(){for(var t=document.getElementsByTagName(&quot;script&quot;),e=t.length;e--;)if(t[e].getAttribute(&quot;cf-hash&quot;))return t[e]}();if(t&amp;&amp;t.previousSibling){var e,r,n,i,c=t.previousSibling,a=c.getAttribute(&quot;data-cfemail&quot;);if(a){for(e=&quot;&quot;,r=parseInt(a.substr(0,2),16),n=2;a.length-n;n+=2)i=parseInt(a.substr(n,2),16)^r,e+=String.fromCharCode(i);e=document.createTextNode(e),c.parentNode.replaceChild(e,c)}}}catch(u){}}();/* ]]&gt; */&lt;/script&gt;\nFormat settings, CABAC                   : Yes\nFormat settings, ReFrames                : 5 frames\nCodec ID                                 : avc1\nCodec ID/Info                            : Advanced Video Coding\nDuration                                 : 1h 53mn\nBit rate                                 : 3 434 Kbps\nMaximum bit rate                         : 22.2 Mbps\nWidth                                    : 1 280 pixels\nHeight                                   : 528 pixels\nDisplay aspect ratio                     : 2.40:1\nFrame rate mode                          : Variable\nFrame rate                               : 23.976 fps\nMinimum frame rate                       : 19.048 fps\nMaximum frame rate                       : 24.390 fps\nColor space                              : YUV\nChroma subsampling                       : 4:2:0\nBit depth                                : 8 bits\nScan type                                : Progressive\nBits/(Pixel*Frame)                       : 0.212\nStream size                              : 2.70 GiB (90%)\nWriting library                          : x264 core 112\n\nAudio\nID                                       : 2\nFormat                                   : AAC\nFormat/Info                              : Advanced Audio Codec\nFormat profile                           : LC\nCodec ID                                 : 40\nDuration                                 : 1h 53mn\nBit rate mode                            : Variable\nBit rate                                 : 384 Kbps\nMaximum bit rate                         : 599 Kbps\nChannel(s)                               : 6 channels\nChannel positions                        : Front: L C R, Side: L R, LFE\nSampling rate                            : 48.0 KHz\nCompression mode                         : Lossy\nDelay relative to video                  : 83ms\nStream size                              : 310 MiB (10%)\nLanguage                                 : English\n\nEnjoy...\n\nRequested by Clair\n\nComing soon: Apocalypse Hitler, Cruel Intentions, Double Indemnity and more...","torrent":{"xt":"urn:btih:92a79df6c994218ce591968894674c36db45f3f9","amp;dn":"Twister-720p+MP4+AAC+x264+BRRip+1996-CC","amp;tr":["udp%3A%2F%2Ftracker.openbittorrent.com%3A80","udp%3A%2F%2Fopen.demonii.com%3A1337","udp%3A%2F%2Ftracker.coppersurfer.tk%3A6969","udp%3A%2F%2Fexodus.desync.com%3A6969"],"infoHash":"92a79df6c994218ce591968894674c36db45f3f9","infoHashBuffer":{"type":"Buffer","data":[146,167,157,246,201,148,33,140,229,145,150,136,148,103,76,54,219,69,243,249]},"announce":[],"urlList":[]}}